<svg width="33" height="32" viewBox="0 0 33 32" fill="none" xmlns="http://www.w3.org/2000/svg">
<circle cx="16.6667" cy="16" r="16" fill="#0D28A6"/>
<path d="M20.8334 7.66675H12.5C10.1989 7.66675 8.33337 9.53223 8.33337 11.8334V20.1667C8.33337 22.4679 10.1989 24.3334 12.5 24.3334H20.8334C23.1346 24.3334 25 22.4679 25 20.1667V11.8334C25 9.53223 23.1346 7.66675 20.8334 7.66675Z" stroke="white" stroke-linecap="round" stroke-linejoin="round"/>
<path d="M20.0001 15.475C20.103 16.1685 19.9845 16.8769 19.6616 17.4992C19.3387 18.1215 18.8277 18.6262 18.2015 18.9414C17.5752 19.2566 16.8655 19.3663 16.1733 19.255C15.4811 19.1436 14.8416 18.8167 14.3458 18.321C13.8501 17.8252 13.5232 17.1857 13.4118 16.4935C13.3005 15.8013 13.4102 15.0916 13.7254 14.4653C14.0406 13.8391 14.5453 13.3281 15.1676 13.0052C15.7899 12.6823 16.4983 12.5638 17.1918 12.6667C17.8992 12.7716 18.5542 13.1012 19.0599 13.6069C19.5656 14.1126 19.8952 14.7676 20.0001 15.475Z" stroke="white" stroke-linecap="round" stroke-linejoin="round"/>
<path d="M21.2501 11.4167H21.2585" stroke="white" stroke-linecap="round" stroke-linejoin="round"/>
</svg>
