<svg width="32" height="32" viewBox="0 0 32 32" fill="none" xmlns="http://www.w3.org/2000/svg">
<circle cx="16" cy="16" r="16" fill="#F9CC00"/>
<path d="M11.8333 24.3332H9.33329C8.89127 24.3332 8.46734 24.1576 8.15478 23.845C7.84222 23.5325 7.66663 23.1085 7.66663 22.6665V16.8332C7.66663 16.3911 7.84222 15.9672 8.15478 15.6547C8.46734 15.3421 8.89127 15.1665 9.33329 15.1665H11.8333M17.6666 13.4998V10.1665C17.6666 9.50346 17.4032 8.86758 16.9344 8.39874C16.4656 7.9299 15.8297 7.6665 15.1666 7.6665L11.8333 15.1665V24.3332H21.2333C21.6352 24.3377 22.0253 24.1968 22.3315 23.9365C22.6378 23.6762 22.8397 23.3139 22.9 22.9165L24.05 15.4165C24.0862 15.1776 24.0701 14.9337 24.0027 14.7017C23.9354 14.4697 23.8184 14.2551 23.6598 14.0728C23.5013 13.8904 23.305 13.7448 23.0846 13.6459C22.8642 13.5469 22.6249 13.4971 22.3833 13.4998H17.6666Z" stroke="white" stroke-width="2" stroke-linecap="round" stroke-linejoin="round"/>
</svg>
