<svg width="33" height="32" viewBox="0 0 33 32" fill="none" xmlns="http://www.w3.org/2000/svg">
<circle cx="16.6667" cy="16" r="16" fill="#0D28A6"/>
<path d="M25.8335 8.50008C25.0354 9.06298 24.1519 9.4935 23.2168 9.77508C22.7149 9.198 22.0479 8.78899 21.306 8.60335C20.5641 8.41771 19.783 8.46441 19.0685 8.73712C18.354 9.00984 17.7405 9.49541 17.3109 10.1282C16.8814 10.7609 16.6565 11.5104 16.6668 12.2751V13.1084C15.2023 13.1464 13.7512 12.8216 12.4426 12.163C11.1341 11.5043 10.0087 10.5323 9.16679 9.33341C9.16679 9.33341 5.83346 16.8334 13.3335 20.1667C11.6172 21.3317 9.57275 21.9159 7.50012 21.8334C15.0001 26.0001 24.1668 21.8334 24.1668 12.2501C24.166 12.018 24.1437 11.7864 24.1001 11.5584C24.9506 10.7197 25.5508 9.66067 25.8335 8.50008V8.50008Z" stroke="white" stroke-linecap="round" stroke-linejoin="round"/>
</svg>
